<svg width="1517" height="1071" viewBox="0 0 1517 1071" fill="none" xmlns="http://www.w3.org/2000/svg">
<g clip-path="url(#clip0_477_367)">
<path d="M3.99999 1L3.99994 1070.01" stroke="white" stroke-opacity="0.25"/>
<path d="M152.5 1.00342L157.5 1070" stroke="white" stroke-opacity="0.25"/>
<path d="M303.5 1.00342L308.5 1070" stroke="white" stroke-opacity="0.25"/>
<path d="M454.5 1.00342L459.5 1070" stroke="white" stroke-opacity="0.25"/>
<path d="M605.5 1.00342L610.5 1070" stroke="white" stroke-opacity="0.25"/>
<path d="M756.5 1.00342L761.5 1070" stroke="white" stroke-opacity="0.25"/>
<path d="M907.5 1.00342L912.5 1070" stroke="white" stroke-opacity="0.25"/>
<path d="M1058.5 1.00342L1063.5 1070" stroke="white" stroke-opacity="0.25"/>
<path d="M1209.5 1.00342L1214.5 1070" stroke="white" stroke-opacity="0.25"/>
<path d="M1360.5 1.00342L1365.5 1070" stroke="white" stroke-opacity="0.25"/>
<path d="M1511.5 1.00342L1516.5 1070" stroke="white" stroke-opacity="0.25"/>
<path d="M0 1059.51H1513" stroke="white" stroke-opacity="0.25"/>
<path d="M-0.00335693 908.506L1513 903.568" stroke="white" stroke-opacity="0.25"/>
<path d="M-0.00335693 757.506L1513 752.568" stroke="white" stroke-opacity="0.25"/>
<path d="M-0.00335693 606.506L1513 601.568" stroke="white" stroke-opacity="0.25"/>
<path d="M-0.00335693 455.506L1513 450.568" stroke="white" stroke-opacity="0.25"/>
<path d="M-0.00335693 304.506L1513 299.568" stroke="white" stroke-opacity="0.25"/>
<path d="M0.998352 153.506L1513 148.568" stroke="white" stroke-opacity="0.25"/>
<path d="M0 0.505859H1513" stroke="white" stroke-opacity="0.25"/>
<path d="M74.1 1.00537L79.1 1070.01" stroke="white" stroke-opacity="0.25" stroke-width="0.2"/>
<path d="M225.1 1.00537L230.1 1070.01" stroke="white" stroke-opacity="0.25" stroke-width="0.2"/>
<path d="M376.1 1.00537L381.1 1070.01" stroke="white" stroke-opacity="0.25" stroke-width="0.2"/>
<path d="M527.1 1.00537L532.1 1070.01" stroke="white" stroke-opacity="0.25" stroke-width="0.2"/>
<path d="M678.1 1.00537L683.1 1070.01" stroke="white" stroke-opacity="0.25" stroke-width="0.2"/>
<path d="M829.1 1.00537L834.1 1070.01" stroke="white" stroke-opacity="0.25" stroke-width="0.2"/>
<path d="M980.1 1.00537L985.1 1070.01" stroke="white" stroke-opacity="0.25" stroke-width="0.2"/>
<path d="M1131.1 1.00537L1136.1 1070.01" stroke="white" stroke-opacity="0.25" stroke-width="0.2"/>
<path d="M1282.1 1.00537L1287.1 1070.01" stroke="white" stroke-opacity="0.25" stroke-width="0.2"/>
<path d="M1433.1 1.00537L1438.1 1070.01" stroke="white" stroke-opacity="0.25" stroke-width="0.2"/>
<path d="M-0.000671387 986.906L1513 981.968" stroke="white" stroke-opacity="0.25" stroke-width="0.2"/>
<path d="M-0.000671387 835.906L1513 830.968" stroke="white" stroke-opacity="0.25" stroke-width="0.2"/>
<path d="M-0.000671387 684.906L1513 679.968" stroke="white" stroke-opacity="0.25" stroke-width="0.2"/>
<path d="M-0.000671387 533.906L1513 528.968" stroke="white" stroke-opacity="0.25" stroke-width="0.2"/>
<path d="M-0.000671387 382.906L1513 377.968" stroke="white" stroke-opacity="0.25" stroke-width="0.2"/>
<path d="M-0.000671387 231.906L1513 226.968" stroke="white" stroke-opacity="0.25" stroke-width="0.2"/>
<path d="M-0.000671387 80.906L1513 75.968" stroke="white" stroke-opacity="0.25" stroke-width="0.2"/>
<path d="M-0.000671387 986.906L1513 981.968" stroke="white" stroke-opacity="0.25" stroke-width="0.2"/>
<path d="M-0.000671387 835.906L1513 830.968" stroke="white" stroke-opacity="0.25" stroke-width="0.2"/>
<path d="M-0.000671387 684.906L1513 679.968" stroke="white" stroke-opacity="0.25" stroke-width="0.2"/>
<path d="M-0.000671387 533.906L1513 528.968" stroke="white" stroke-opacity="0.25" stroke-width="0.2"/>
<path d="M-0.000671387 382.906L1513 377.968" stroke="white" stroke-opacity="0.25" stroke-width="0.2"/>
<path d="M-0.000671387 231.906L1513 226.968" stroke="white" stroke-opacity="0.25" stroke-width="0.2"/>
<path d="M0.999664 80.906L1513 75.968" stroke="white" stroke-opacity="0.25" stroke-width="0.2"/>
</g>
<defs>
<clipPath id="clip0_477_367">
<rect width="1517" height="1071" fill="white"/>
</clipPath>
</defs>
</svg>
