<svg width="1517" height="1071" viewBox="0 0 1517 1071" fill="none" xmlns="http://www.w3.org/2000/svg">
<line x1="4" y1="1" x2="3.99995" y2="1070.01" stroke="white" stroke-opacity="0.4"/>
<line x1="152.5" y1="1.00352" x2="157.5" y2="1070" stroke="white" stroke-opacity="0.4"/>
<line x1="303.5" y1="1.00352" x2="308.5" y2="1070" stroke="white" stroke-opacity="0.4"/>
<line x1="454.5" y1="1.00352" x2="459.5" y2="1070" stroke="white" stroke-opacity="0.4"/>
<line x1="605.5" y1="1.00352" x2="610.5" y2="1070" stroke="white" stroke-opacity="0.4"/>
<line x1="756.5" y1="1.00352" x2="761.5" y2="1070" stroke="white" stroke-opacity="0.4"/>
<line x1="907.5" y1="1.00352" x2="912.5" y2="1070" stroke="white" stroke-opacity="0.4"/>
<line x1="1058.5" y1="1.00352" x2="1063.5" y2="1070" stroke="white" stroke-opacity="0.4"/>
<line x1="1209.5" y1="1.00352" x2="1214.5" y2="1070" stroke="white" stroke-opacity="0.4"/>
<line x1="1360.5" y1="1.00352" x2="1365.5" y2="1070" stroke="white" stroke-opacity="0.4"/>
<line x1="1511.5" y1="1.00352" x2="1516.5" y2="1070" stroke="white" stroke-opacity="0.4"/>
<line y1="1059.51" x2="1513" y2="1059.51" stroke="white" stroke-opacity="0.4"/>
<line y1="-0.5" x2="1513.01" y2="-0.5" transform="matrix(0.999995 -0.00326368 0.00670289 0.999977 0 909.006)" stroke="white" stroke-opacity="0.4"/>
<line y1="-0.5" x2="1513.01" y2="-0.5" transform="matrix(0.999995 -0.00326368 0.00670289 0.999977 0 758.006)" stroke="white" stroke-opacity="0.4"/>
<line y1="-0.5" x2="1513.01" y2="-0.5" transform="matrix(0.999995 -0.00326368 0.00670289 0.999977 0 607.006)" stroke="white" stroke-opacity="0.4"/>
<line y1="-0.5" x2="1513.01" y2="-0.5" transform="matrix(0.999995 -0.00326368 0.00670289 0.999977 0 456.006)" stroke="white" stroke-opacity="0.4"/>
<line y1="-0.5" x2="1513.01" y2="-0.5" transform="matrix(0.999995 -0.00326368 0.00670289 0.999977 0 305.006)" stroke="white" stroke-opacity="0.4"/>
<line x1="0.998367" y1="153.506" x2="1513" y2="148.568" stroke="white" stroke-opacity="0.4"/>
<line y1="0.505859" x2="1513" y2="0.505859" stroke="white" stroke-opacity="0.4"/>
<line x1="74.1" y1="1.00539" x2="79.1" y2="1070.01" stroke="white" stroke-opacity="0.4" stroke-width="0.2"/>
<line x1="225.1" y1="1.00539" x2="230.1" y2="1070.01" stroke="white" stroke-opacity="0.4" stroke-width="0.2"/>
<line x1="376.1" y1="1.00539" x2="381.1" y2="1070.01" stroke="white" stroke-opacity="0.4" stroke-width="0.2"/>
<line x1="527.1" y1="1.00539" x2="532.1" y2="1070.01" stroke="white" stroke-opacity="0.4" stroke-width="0.2"/>
<line x1="678.1" y1="1.00539" x2="683.1" y2="1070.01" stroke="white" stroke-opacity="0.4" stroke-width="0.2"/>
<line x1="829.1" y1="1.00539" x2="834.1" y2="1070.01" stroke="white" stroke-opacity="0.4" stroke-width="0.2"/>
<line x1="980.1" y1="1.00539" x2="985.1" y2="1070.01" stroke="white" stroke-opacity="0.4" stroke-width="0.2"/>
<line x1="1131.1" y1="1.00539" x2="1136.1" y2="1070.01" stroke="white" stroke-opacity="0.4" stroke-width="0.2"/>
<line x1="1282.1" y1="1.00539" x2="1287.1" y2="1070.01" stroke="white" stroke-opacity="0.4" stroke-width="0.2"/>
<line x1="1433.1" y1="1.00539" x2="1438.1" y2="1070.01" stroke="white" stroke-opacity="0.4" stroke-width="0.2"/>
<line y1="-0.1" x2="1513.01" y2="-0.1" transform="matrix(0.999995 -0.00326368 0.00670289 0.999977 0 987.006)" stroke="white" stroke-opacity="0.4" stroke-width="0.2"/>
<line y1="-0.1" x2="1513.01" y2="-0.1" transform="matrix(0.999995 -0.00326368 0.00670289 0.999977 0 836.006)" stroke="white" stroke-opacity="0.4" stroke-width="0.2"/>
<line y1="-0.1" x2="1513.01" y2="-0.1" transform="matrix(0.999995 -0.00326368 0.00670289 0.999977 0 685.006)" stroke="white" stroke-opacity="0.4" stroke-width="0.2"/>
<line y1="-0.1" x2="1513.01" y2="-0.1" transform="matrix(0.999995 -0.00326368 0.00670289 0.999977 0 534.006)" stroke="white" stroke-opacity="0.4" stroke-width="0.2"/>
<line y1="-0.1" x2="1513.01" y2="-0.1" transform="matrix(0.999995 -0.00326368 0.00670289 0.999977 0 383.006)" stroke="white" stroke-opacity="0.4" stroke-width="0.2"/>
<line y1="-0.1" x2="1513.01" y2="-0.1" transform="matrix(0.999995 -0.00326368 0.00670289 0.999977 0 232.006)" stroke="white" stroke-opacity="0.4" stroke-width="0.2"/>
<line y1="-0.1" x2="1513.01" y2="-0.1" transform="matrix(0.999995 -0.00326368 0.00670289 0.999977 0 81.0059)" stroke="white" stroke-opacity="0.4" stroke-width="0.2"/>
<line y1="-0.1" x2="1513.01" y2="-0.1" transform="matrix(0.999995 -0.00326368 0.00670289 0.999977 0 987.006)" stroke="white" stroke-opacity="0.4" stroke-width="0.2"/>
<line y1="-0.1" x2="1513.01" y2="-0.1" transform="matrix(0.999995 -0.00326368 0.00670289 0.999977 0 836.006)" stroke="white" stroke-opacity="0.4" stroke-width="0.2"/>
<line y1="-0.1" x2="1513.01" y2="-0.1" transform="matrix(0.999995 -0.00326368 0.00670289 0.999977 0 685.006)" stroke="white" stroke-opacity="0.4" stroke-width="0.2"/>
<line y1="-0.1" x2="1513.01" y2="-0.1" transform="matrix(0.999995 -0.00326368 0.00670289 0.999977 0 534.006)" stroke="white" stroke-opacity="0.4" stroke-width="0.2"/>
<line y1="-0.1" x2="1513.01" y2="-0.1" transform="matrix(0.999995 -0.00326368 0.00670289 0.999977 0 383.006)" stroke="white" stroke-opacity="0.4" stroke-width="0.2"/>
<line y1="-0.1" x2="1513.01" y2="-0.1" transform="matrix(0.999995 -0.00326368 0.00670289 0.999977 0 232.006)" stroke="white" stroke-opacity="0.4" stroke-width="0.2"/>
<line x1="0.999673" y1="80.9059" x2="1513" y2="75.9679" stroke="white" stroke-opacity="0.4" stroke-width="0.2"/>
</svg>
