<svg width="799" height="530" viewBox="0 0 799 530" fill="none" xmlns="http://www.w3.org/2000/svg">
<path d="M100.306 508.36C187.357 520.422 296.333 451.82 496.23 460.866C696.127 469.913 701.286 436.742 627.13 377.186C552.975 317.63 647.12 343.262 774.796 328.938C902.472 314.614 856.689 508.36 941.162 526.453C1008.74 540.928 1068.19 488.759 1089.47 460.866" stroke="white"/>
<path d="M589.556 440.436C475.206 395.455 245.217 303.834 240.059 297.2C230.773 291.169 179.015 244.931 154.297 222.566C137.746 206.986 103.097 173.866 96.9069 166.026C89.1689 156.225 31.1344 93.6536 26.6206 91.3919C22.1068 89.1303 -6.26568 61.9908 2.76192 39.3746C11.7895 16.7584 16.3035 17.5122 26.6206 13.7429C34.8742 10.7274 46.825 10.4761 51.7687 10.7274C49.6193 8.46574 46.6101 3.79169 51.7687 3.18859C58.217 2.43471 95.617 -1.33466 103.355 3.18859C111.093 7.71183 141.4 16.0046 145.269 19.774C149.138 23.5433 77.5619 4.6966 64.6653 7.71199C51.7687 10.7274 122.055 8.46586 162.679 28.0666C203.303 47.6673 303.252 85.3611 305.831 89.1304C308.41 92.8998 439.311 153.964 444.469 159.995C449.628 166.026 543.128 198.442 546.352 205.227C549.576 212.012 609.545 231.613 623.731 242.921C637.918 254.229 772.859 319.135 782.532 325.92M657.435 332.705C626.483 321.397 591.49 303.231 568.921 291.169C546.352 279.107 466.393 251.967 432.862 232.367C399.331 212.766 290.355 165.272 273.59 148.687C256.824 132.101 137.71 95.2259 129.148 92.1459C120.765 89.1304 97.5515 86.1149 86.5894 81.5917C86.5894 83.8533 66.5998 82.3456 51.7687 83.8533C39.9039 85.0595 48.9745 105.464 54.9929 115.516L638.563 412.543" stroke="white"/>
<path d="M620.041 374.168C490.86 310.34 269.856 201.91 198.151 161.503C126.446 121.095 81.0073 107.978 67.2509 106.47C61.0176 102.952 56.0309 96.9711 85.9509 101.193C115.871 105.414 413.266 247.015 601.986 334.213" stroke="white"/>
<path d="M623.088 429.128C500.356 376.608 250.506 269.156 232.967 259.507C215.428 249.857 175.792 228.849 158.167 219.551" stroke="white"/>
<path d="M692.087 278.353C698.966 244.931 710.658 172.811 702.405 169.795C692.087 166.026 617.932 158.487 597.942 169.795C581.951 178.842 567.206 201.709 561.832 212.012C564.863 211.96 568.101 211.907 571.504 211.854M571.504 211.854C617.819 211.127 694.667 210.327 694.667 212.012C694.667 214.274 704.984 175.826 698.536 175.826C692.087 175.826 610.194 168.287 606.325 172.057C602.456 175.826 572.149 208.681 571.504 211.854ZM578.598 218.043C615.353 217.54 689.508 216.837 692.087 218.043C694.667 219.249 690.153 257.245 686.929 275.338" stroke="white"/>
</svg>
