<svg width="143" height="70" viewBox="0 0 143 70" fill="none" xmlns="http://www.w3.org/2000/svg">
<path d="M13.864 66.7232C25.1407 68.2857 39.2573 59.399 65.1518 60.5709C91.0463 61.7427 91.7146 57.4459 82.1085 49.731C72.5025 42.0161 84.698 45.3365 101.237 43.481C117.776 41.6255 111.845 66.7232 122.788 69.067C131.542 70.942 139.244 64.1841 142 60.5709" stroke="black" stroke-width="0.5"/>
<path d="M77.241 57.9242C62.4283 52.0974 32.6357 40.2289 31.9674 39.3695C30.7646 38.5883 24.0598 32.5987 20.8578 29.7015C18.7139 27.6833 14.2255 23.3929 13.4236 22.3773C12.4212 21.1078 4.90349 13.0023 4.31877 12.7093C3.73406 12.4163 0.0587106 8.90071 1.22814 5.97102C2.39757 3.04133 2.9823 3.13899 4.31877 2.6507C5.38795 2.26008 6.93605 2.22753 7.57645 2.26008C7.29801 1.96711 6.9082 1.36163 7.57645 1.28351C8.41175 1.18585 13.2565 0.69757 14.2589 1.28351C15.2613 1.86945 19.1872 2.94369 19.6884 3.43197C20.1896 3.92025 10.9177 1.47885 9.24706 1.86947C7.57645 2.26008 16.6813 1.96712 21.9437 4.50619C27.2061 7.04526 40.1534 11.9281 40.4875 12.4164C40.8216 12.9046 57.7784 20.8148 58.4466 21.5961C59.1149 22.3773 71.2268 26.5765 71.6445 27.4554C72.0621 28.3344 79.8305 30.8734 81.6681 32.3383C83.5058 33.8031 100.986 42.211 102.239 43.0899M86.0341 43.9688C82.0246 42.504 77.4916 40.1508 74.568 38.5883C71.6445 37.0258 61.2867 33.5101 56.9431 30.9711C52.5995 28.432 38.4828 22.2797 36.311 20.1312C34.1392 17.9828 18.7093 13.206 17.6001 12.807C16.5142 12.4164 13.5071 12.0257 12.0871 11.4398C12.0871 11.7328 9.49765 11.5374 7.57645 11.7328C6.03948 11.889 7.21448 14.5322 7.9941 15.8343L83.5893 54.311" stroke="black" stroke-width="0.5"/>
<path d="M81.1902 49.3399C64.4562 41.0717 35.8275 27.0258 26.5389 21.7914C17.2502 16.557 11.3641 14.8578 9.58213 14.6625C8.77467 14.2067 8.1287 13.432 12.0045 13.9789C15.8803 14.5257 54.4047 32.8686 78.8513 44.1642" stroke="black" stroke-width="0.5"/>
<path d="M81.5848 56.4595C65.6862 49.6561 33.3208 35.7368 31.0488 34.4868C28.7768 33.2368 23.6424 30.5155 21.3593 29.311" stroke="black" stroke-width="0.5"/>
<path d="M90.523 36.9282C91.414 32.5988 92.9287 23.2563 91.8595 22.8657C90.523 22.3774 80.9169 21.4009 78.3275 22.8657C76.2559 24.0376 74.3459 26.9998 73.6498 28.3345C74.0424 28.3278 74.4619 28.3209 74.9027 28.314M74.9027 28.314C80.9023 28.2198 90.8571 28.1161 90.8571 28.3345C90.8571 28.6274 92.1936 23.647 91.3583 23.647C90.523 23.647 79.9146 22.6704 79.4134 23.1587C78.9122 23.647 74.9863 27.9029 74.9027 28.314ZM75.8216 29.1157C80.5828 29.0506 90.1889 28.9595 90.523 29.1157C90.8571 29.272 90.2724 34.1939 89.8547 36.5376" stroke="black" stroke-width="0.5"/>
</svg>
