<svg width="137" height="68" viewBox="0 0 137 68" fill="none" xmlns="http://www.w3.org/2000/svg">
<path d="M13.3477 64.0824C24.1714 65.5821 37.721 57.0523 62.5755 58.1771C87.4299 59.3019 88.0713 55.1776 78.8511 47.7727C69.6309 40.3677 81.3366 43.5546 97.2113 41.7737C113.086 39.9927 107.394 64.0824 117.897 66.332C126.299 68.1317 133.691 61.6453 136.337 58.1771" stroke="#1925C0"/>
<path d="M74.1789 55.6378C59.9611 50.0451 31.3651 38.6532 30.7237 37.8284C29.5692 37.0785 23.1338 31.3295 20.0604 28.5487C18.0025 26.6115 13.6944 22.4935 12.9247 21.5187C11.9626 20.3001 4.74682 12.5202 4.18559 12.239C3.62436 11.9578 0.096635 8.58338 1.21909 5.77136C2.34155 2.95934 2.9028 3.05307 4.18559 2.5844C5.21182 2.20947 6.69774 2.17822 7.31242 2.20947C7.04517 1.92826 6.67101 1.34711 7.31242 1.27212C8.11418 1.17839 12.7644 0.709717 13.7265 1.27212C14.6886 1.83452 18.4568 2.86562 18.9379 3.33429C19.4189 3.80296 10.5194 1.45962 8.91593 1.83454C7.31242 2.20947 16.0516 1.92828 21.1026 4.36536C26.1537 6.80245 38.5809 11.4891 38.9016 11.9578C39.2223 12.4265 55.498 20.0189 56.1394 20.7688C56.7808 21.5187 68.4062 25.5492 68.8071 26.3929C69.208 27.2365 76.6643 29.6735 78.4282 31.0796C80.192 32.4856 96.9702 40.5557 98.1728 41.3994M82.6188 42.243C78.7703 40.8369 74.4194 38.5783 71.6133 37.0785C68.8071 35.5788 58.8653 32.2044 54.6962 29.7673C50.5271 27.3302 36.9774 21.4249 34.8928 19.3628C32.8083 17.3007 17.9981 12.7157 16.9335 12.3328C15.8912 11.9578 13.0049 11.5829 11.6419 11.0205C11.6419 11.3017 9.15646 11.1142 7.31242 11.3017C5.83719 11.4517 6.96499 13.9887 7.7133 15.2385L80.2722 52.1697" stroke="#1925C0"/>
<path d="M77.9692 47.3987C61.9074 39.4625 34.4285 25.9807 25.513 20.9566C16.5975 15.9325 10.9478 14.3015 9.23734 14.114C8.46231 13.6766 7.84228 12.933 11.5624 13.4579C15.2826 13.9828 52.2596 31.5889 75.7243 42.4308" stroke="#1925C0"/>
<path d="M78.3486 54.2319C63.0885 47.7017 32.0231 34.3415 29.8424 33.1417C27.6616 31.9419 22.7335 29.3299 20.542 28.1738" stroke="#1925C0"/>
<path d="M86.9269 35.4844C87.7821 31.3289 89.236 22.3617 88.2097 21.9867C86.9269 21.5181 77.7067 20.5807 75.2213 21.9867C73.2329 23.1115 71.3996 25.9548 70.7314 27.2358C71.1083 27.2294 71.5109 27.2228 71.9341 27.2162M71.9341 27.2162C77.6926 27.1258 87.2476 27.0263 87.2476 27.2358C87.2476 27.517 88.5304 22.7366 87.7287 22.7366C86.9269 22.7366 76.7446 21.7993 76.2636 22.2679C75.7825 22.7366 72.0143 26.8216 71.9341 27.2162ZM72.816 27.9857C77.386 27.9232 86.6062 27.8357 86.9269 27.9857C87.2476 28.1357 86.6864 32.8599 86.2855 35.1095" stroke="#1925C0"/>
</svg>
