<svg width="1529" height="1103" viewBox="0 0 1529 1103" fill="none" xmlns="http://www.w3.org/2000/svg">
<line x1="0.500046" y1="2.66668e-08" x2="0.500006" y2="1103" stroke="black" stroke-opacity="0.2"/>
<line y1="-0.5" x2="1102.99" y2="-0.5" transform="matrix(0.00249122 0.999997 -0.999961 0.0087812 150 0)" stroke="black" stroke-opacity="0.2"/>
<line y1="-0.5" x2="1102.99" y2="-0.5" transform="matrix(0.00249122 0.999997 -0.999961 0.0087812 302.748 0)" stroke="black" stroke-opacity="0.2"/>
<line y1="-0.5" x2="1102.99" y2="-0.5" transform="matrix(0.00249122 0.999997 -0.999961 0.0087812 455.496 0)" stroke="black" stroke-opacity="0.2"/>
<line y1="-0.5" x2="1102.99" y2="-0.5" transform="matrix(0.00249122 0.999997 -0.999961 0.0087812 608.243 0)" stroke="black" stroke-opacity="0.2"/>
<line y1="-0.5" x2="1102.99" y2="-0.5" transform="matrix(0.00249122 0.999997 -0.999961 0.0087812 760.991 0)" stroke="black" stroke-opacity="0.2"/>
<line y1="-0.5" x2="1102.99" y2="-0.5" transform="matrix(0.00249122 0.999997 -0.999961 0.0087812 913.739 0)" stroke="black" stroke-opacity="0.2"/>
<line y1="-0.5" x2="1102.99" y2="-0.5" transform="matrix(0.00249122 0.999997 -0.999961 0.0087812 1066.49 0)" stroke="black" stroke-opacity="0.2"/>
<line y1="-0.5" x2="1102.99" y2="-0.5" transform="matrix(0.00249122 0.999997 -0.999961 0.0087812 1219.23 0)" stroke="black" stroke-opacity="0.2"/>
<line y1="-0.5" x2="1102.99" y2="-0.5" transform="matrix(0.00249122 0.999997 -0.999961 0.0087812 1371.98 0)" stroke="black" stroke-opacity="0.2"/>
<line y1="-0.5" x2="1102.99" y2="-0.5" transform="matrix(0.00249122 0.999997 -0.999961 0.0087812 1524.73 0)" stroke="black" stroke-opacity="0.2"/>
</svg>
