<svg width="302" height="71" viewBox="0 0 302 71" fill="none" xmlns="http://www.w3.org/2000/svg">
<path d="M3.458 46.5V9.78H37.373V17.736H11.465V24.162H32.324V32.118H11.465V38.544H37.373V46.5H3.458ZM36.7929 46.5V43.797L49.8999 28.14L36.7929 12.483V9.78H45.0039L55.2039 21.867L65.3019 9.78H73.5129V12.483L60.3549 28.14L73.5129 43.746V46.5H65.3019L55.1019 34.464L45.0039 46.5H36.7929ZM81.1386 46.5C79.7446 46.5 78.4696 46.16 77.3136 45.48C76.1916 44.8 75.2906 43.899 74.6106 42.777C73.9306 41.621 73.5906 40.346 73.5906 38.952V17.328C73.5906 15.934 73.9306 14.676 74.6106 13.554C75.2906 12.398 76.1916 11.48 77.3136 10.8C78.4696 10.12 79.7446 9.78 81.1386 9.78H110.209V17.736H83.1786C82.6346 17.736 82.2096 17.872 81.9036 18.144C81.6316 18.416 81.4956 18.841 81.4956 19.419V36.861C81.4956 37.405 81.6316 37.83 81.9036 38.136C82.2096 38.408 82.6346 38.544 83.1786 38.544H110.209V46.5H81.1386ZM110.528 46.5V9.78H144.443V17.736H118.535V24.162H139.394V32.118H118.535V38.544H144.443V46.5H110.528ZM144.373 46.5V9.831H173.494C174.888 9.831 176.146 10.171 177.268 10.851C178.424 11.531 179.342 12.449 180.022 13.605C180.736 14.761 181.093 16.019 181.093 17.379V26.865C181.093 28.225 180.736 29.483 180.022 30.639C179.342 31.795 178.424 32.713 177.268 33.393C176.146 34.073 174.888 34.413 173.494 34.413L152.278 34.464V46.5H144.373ZM152.278 26.457H173.086V17.736H152.278V26.457ZM192.161 46.5V17.736H177.779V9.78H214.499V17.736H200.117V46.5H192.161ZM211.938 46.5V9.78H219.741V46.5H211.938ZM239.216 46.5L217.949 9.78H227.129L242.531 36.453L257.933 9.78H267.062L245.795 46.5H239.216ZM265.172 46.5V9.78H299.087V17.736H273.179V24.162H294.038V32.118H273.179V38.544H299.087V46.5H265.172Z" fill="white"/>
<path d="M2.16919 60.5V53.064C2.16919 52.7087 2.25586 52.388 2.42919 52.102C2.60253 51.8073 2.83653 51.5733 3.13119 51.4C3.42586 51.2267 3.74653 51.14 4.09319 51.14H9.59219C9.94753 51.14 10.2682 51.2267 10.5542 51.4C10.8489 51.5733 11.0829 51.8073 11.2562 52.102C11.4382 52.388 11.5292 52.7087 11.5292 53.064V60.5H9.48819V57.484H4.18419V60.5H2.16919ZM4.18419 55.456H9.48819V53.168H4.18419V55.456ZM14.8564 60.5V51.14H22.2794C22.6347 51.14 22.9554 51.2267 23.2414 51.4C23.536 51.5733 23.77 51.8073 23.9434 52.102C24.1254 52.388 24.2164 52.7087 24.2164 53.064V58.576C24.2164 58.9227 24.1254 59.2433 23.9434 59.538C23.77 59.8327 23.536 60.0667 23.2414 60.24C22.9554 60.4133 22.6347 60.5 22.2794 60.5H14.8564ZM16.8584 58.472H22.1754V53.168H16.8584V58.472ZM32.1578 60.5L26.7368 51.14H29.0768L33.0028 57.939L36.9288 51.14H39.2558L33.8348 60.5H32.1578ZM41.7542 60.5V53.064C41.7542 52.7087 41.8409 52.388 42.0142 52.102C42.1875 51.8073 42.4215 51.5733 42.7162 51.4C43.0109 51.2267 43.3315 51.14 43.6782 51.14H49.1772C49.5325 51.14 49.8532 51.2267 50.1392 51.4C50.4339 51.5733 50.6679 51.8073 50.8412 52.102C51.0232 52.388 51.1142 52.7087 51.1142 53.064V60.5H49.0732V57.484H43.7692V60.5H41.7542ZM43.7692 55.456H49.0732V53.168H43.7692V55.456ZM54.4154 60.5V51.14H56.4954L61.7344 57.38V51.14H63.7754V60.5H61.6954L56.4304 54.234V60.5H54.4154ZM68.9758 60.5C68.6205 60.5 68.2955 60.4133 68.0008 60.24C67.7148 60.0667 67.4851 59.837 67.3118 59.551C67.1385 59.2563 67.0518 58.9313 67.0518 58.576V53.064C67.0518 52.7087 67.1385 52.388 67.3118 52.102C67.4851 51.8073 67.7148 51.5733 68.0008 51.4C68.2955 51.2267 68.6205 51.14 68.9758 51.14H76.3858V53.168H69.4958C69.3571 53.168 69.2488 53.2027 69.1708 53.272C69.1015 53.3413 69.0668 53.4497 69.0668 53.597V58.043C69.0668 58.1817 69.1015 58.29 69.1708 58.368C69.2488 58.4373 69.3571 58.472 69.4958 58.472H76.3858V60.5H68.9758ZM79.5872 60.5V51.14H88.2322V53.168H81.6282V54.806H86.9452V56.834H81.6282V58.472H88.2322V60.5H79.5872ZM91.3604 60.5V51.14H98.7834C99.1387 51.14 99.4594 51.2267 99.7454 51.4C100.04 51.5733 100.274 51.8073 100.447 52.102C100.629 52.388 100.72 52.7087 100.72 53.064V58.576C100.72 58.9227 100.629 59.2433 100.447 59.538C100.274 59.8327 100.04 60.0667 99.7454 60.24C99.4594 60.4133 99.1387 60.5 98.7834 60.5H91.3604ZM93.3624 58.472H98.6794V53.168H93.3624V58.472ZM110.006 60.5V51.14H112.086L115.258 54.923L118.417 51.14H120.51V60.5H118.482V54.221L115.258 58.069L112.021 54.234V60.5H110.006ZM123.912 60.5V53.064C123.912 52.7087 123.999 52.388 124.172 52.102C124.345 51.8073 124.579 51.5733 124.874 51.4C125.169 51.2267 125.489 51.14 125.836 51.14H131.335C131.69 51.14 132.011 51.2267 132.297 51.4C132.592 51.5733 132.826 51.8073 132.999 52.102C133.181 52.388 133.272 52.7087 133.272 53.064V60.5H131.231V57.484H125.927V60.5H123.912ZM125.927 55.456H131.231V53.168H125.927V55.456ZM143.84 60.5L141.123 57.263H143.762L145.92 59.811V60.5H143.84ZM136.573 60.5V51.153H143.996C144.352 51.153 144.672 51.2397 144.958 51.413C145.253 51.5863 145.487 51.8203 145.66 52.115C145.842 52.4097 145.933 52.7303 145.933 53.077V55.495C145.933 55.8417 145.842 56.1623 145.66 56.457C145.487 56.7517 145.253 56.9857 144.958 57.159C144.672 57.3323 144.352 57.419 143.996 57.419L138.588 57.432V60.5H136.573ZM138.588 55.391H143.892V53.168H138.588V55.391ZM148.796 60.5V51.14H150.785V60.5H148.796ZM157.173 60.5V53.168H153.507V51.14H162.867V53.168H159.201V60.5H157.173ZM165.334 60.5V51.14H167.323V60.5H165.334ZM170.26 60.5V51.14H172.34L175.512 54.923L178.671 51.14H180.764V60.5H178.736V54.221L175.512 58.069L172.275 54.234V60.5H170.26ZM184.166 60.5V51.14H192.811V53.168H186.207V54.806H191.524V56.834H186.207V58.472H192.811V60.5H184.166ZM201.949 60.5V51.14H210.594V53.168H203.99V54.806H209.307V56.834H203.99V58.472H210.594V60.5H201.949ZM213.566 60.5V59.811L216.907 55.82L213.566 51.829V51.14H215.659L218.259 54.221L220.833 51.14H222.926V51.829L219.572 55.82L222.926 59.798V60.5H220.833L218.233 57.432L215.659 60.5H213.566ZM226.066 60.5V51.153H233.489C233.844 51.153 234.165 51.2397 234.451 51.413C234.745 51.5863 234.979 51.8203 235.153 52.115C235.335 52.4097 235.426 52.7303 235.426 53.077V55.495C235.426 55.8417 235.335 56.1623 235.153 56.457C234.979 56.7517 234.745 56.9857 234.451 57.159C234.165 57.3323 233.844 57.419 233.489 57.419L228.081 57.432V60.5H226.066ZM228.081 55.391H233.385V53.168H228.081V55.391ZM238.195 60.5V51.14H246.84V53.168H240.236V54.806H245.553V56.834H240.236V58.472H246.84V60.5H238.195ZM257.209 60.5L254.492 57.263H257.131L259.289 59.811V60.5H257.209ZM249.942 60.5V51.153H257.365C257.72 51.153 258.041 51.2397 258.327 51.413C258.622 51.5863 258.856 51.8203 259.029 52.115C259.211 52.4097 259.302 52.7303 259.302 53.077V55.495C259.302 55.8417 259.211 56.1623 259.029 56.457C258.856 56.7517 258.622 56.9857 258.327 57.159C258.041 57.3323 257.72 57.419 257.365 57.419L251.957 57.432V60.5H249.942ZM251.957 55.391H257.261V53.168H251.957V55.391ZM265.688 60.5V53.168H262.022V51.14H271.382V53.168H267.716V60.5H265.688ZM273.849 60.5V51.14H275.838V60.5H273.849ZM280.672 60.5C280.325 60.5 280.005 60.4133 279.71 60.24C279.415 60.0667 279.181 59.8327 279.008 59.538C278.835 59.2433 278.748 58.9227 278.748 58.576V57.705H280.763V58.472H286.067V56.834H280.672C280.325 56.834 280.005 56.7473 279.71 56.574C279.415 56.4007 279.181 56.171 279.008 55.885C278.835 55.5903 278.748 55.2653 278.748 54.91V53.064C278.748 52.7087 278.835 52.388 279.008 52.102C279.181 51.8073 279.415 51.5733 279.71 51.4C280.005 51.2267 280.325 51.14 280.672 51.14H286.184C286.531 51.14 286.847 51.2267 287.133 51.4C287.428 51.5733 287.662 51.8073 287.835 52.102C288.017 52.388 288.108 52.7087 288.108 53.064V53.935H286.067V53.168H280.763V54.806H286.184C286.531 54.806 286.847 54.8927 287.133 55.066C287.428 55.2393 287.662 55.4733 287.835 55.768C288.017 56.054 288.108 56.3747 288.108 56.73V58.576C288.108 58.9227 288.017 59.2433 287.835 59.538C287.662 59.8327 287.428 60.0667 287.133 60.24C286.847 60.4133 286.531 60.5 286.184 60.5H280.672ZM291.386 60.5V51.14H300.031V53.168H293.427V54.806H298.744V56.834H293.427V58.472H300.031V60.5H291.386Z" fill="white"/>
</svg>
