<svg width="1267" height="207" viewBox="0 0 1267 207" fill="none" xmlns="http://www.w3.org/2000/svg">
<path d="M1118.59 149.683V0.981934H1262.84V33.2005H1152.65V59.2231H1241.36V91.4416H1152.65V117.464H1262.84V149.683H1118.59Z" fill="#1925C0"/>
<path d="M1008.2 149.683L917.746 0.981934H956.79L1022.3 108.997L1087.8 0.981934H1126.63L1036.18 149.683H1008.2Z" fill="#1925C0"/>
<path d="M892.177 149.683V0.981934H925.365V149.683H892.177Z" fill="#1925C0"/>
<path d="M808.066 149.683V33.2005H746.897V0.981934H903.073V33.2005H841.904V149.683H808.066Z" fill="#1925C0"/>
<path d="M604.815 149.682V1.1875H728.671C734.6 1.1875 739.951 2.56436 744.723 5.31807C749.639 8.0718 753.544 11.7893 756.436 16.4706C759.473 21.152 760.991 26.2464 760.991 31.7538V70.1682C760.991 75.6756 759.473 80.77 756.436 85.4514C753.544 90.1327 749.639 93.8502 744.723 96.6039C739.951 99.3576 734.6 100.734 728.671 100.734L638.437 100.941V149.682H604.815ZM638.437 68.516H726.936V33.1995H638.437V68.516Z" fill="#1925C0"/>
<path d="M460.869 149.683V0.981934H605.114V33.2005H494.924V59.2231H583.64V91.4416H494.924V117.464H605.114V149.683H460.869Z" fill="#1925C0"/>
<path d="M335.87 149.683C329.941 149.683 324.519 148.306 319.602 145.552C314.83 142.799 310.998 139.15 308.106 134.606C305.214 129.925 303.768 124.762 303.768 119.117V31.5482C303.768 25.9031 305.214 20.8087 308.106 16.2651C310.998 11.5838 314.83 7.86623 319.602 5.11251C324.519 2.35879 329.941 0.981934 335.87 0.981934H459.509V33.2005H344.547C342.233 33.2005 340.425 33.7512 339.124 34.8527C337.967 35.9542 337.389 37.6753 337.389 40.0159V110.649C337.389 112.852 337.967 114.573 339.124 115.812C340.425 116.914 342.233 117.464 344.547 117.464H459.509V149.683H335.87Z" fill="#1925C0"/>
<path d="M147.261 149.683V138.737L203.007 75.3324L147.261 11.928V0.981934H182.183L225.565 49.9293L268.514 0.981934H303.436V11.928L247.473 75.3324L303.436 138.53V149.683H268.514L225.132 100.942L182.183 149.683H147.261Z" fill="#1925C0"/>
<path d="M5.48145 149.683V0.981934H149.727V33.2005H39.5364V59.2231H128.253V91.4416H39.5364V117.464H149.727V149.683H5.48145Z" fill="#1925C0"/>
<path d="M1230.08 206.374V168.47H1266.85V176.683H1238.76V183.316H1261.38V191.528H1238.76V198.162H1266.85V206.374H1230.08Z" fill="#1925C0"/>
<path d="M1184.51 206.374C1183.04 206.374 1181.68 206.023 1180.42 205.321C1179.17 204.619 1178.17 203.672 1177.44 202.478C1176.7 201.285 1176.33 199.987 1176.33 198.583V195.056H1184.9V198.162H1207.46V191.528H1184.51C1183.04 191.528 1181.68 191.177 1180.42 190.475C1179.17 189.774 1178.17 188.843 1177.44 187.685C1176.7 186.492 1176.33 185.176 1176.33 183.737V176.261C1176.33 174.822 1176.7 173.524 1177.44 172.366C1178.17 171.172 1179.17 170.225 1180.42 169.523C1181.68 168.821 1183.04 168.47 1184.51 168.47H1207.96C1209.43 168.47 1210.78 168.821 1211.99 169.523C1213.25 170.225 1214.24 171.172 1214.98 172.366C1215.75 173.524 1216.14 174.822 1216.14 176.261V179.789H1207.46V176.683H1184.9V183.316H1207.96C1209.43 183.316 1210.78 183.667 1211.99 184.369C1213.25 185.071 1214.24 186.018 1214.98 187.211C1215.75 188.37 1216.14 189.668 1216.14 191.107V198.583C1216.14 199.987 1215.75 201.285 1214.98 202.478C1214.24 203.672 1213.25 204.619 1211.99 205.321C1210.78 206.023 1209.43 206.374 1207.96 206.374H1184.51Z" fill="#1925C0"/>
<path d="M1155.49 206.374V168.47H1163.95V206.374H1155.49Z" fill="#1925C0"/>
<path d="M1120.78 206.374V176.683H1105.19V168.47H1145V176.683H1129.41V206.374H1120.78Z" fill="#1925C0"/>
<path d="M1084.72 206.377L1073.17 193.269H1084.39L1093.57 203.587V206.377H1084.72ZM1053.82 206.377V168.526H1085.39C1086.9 168.526 1088.26 168.877 1089.48 169.579C1090.73 170.281 1091.73 171.228 1092.46 172.421C1093.24 173.615 1093.63 174.913 1093.63 176.317V186.109C1093.63 187.513 1093.24 188.811 1092.46 190.005C1091.73 191.198 1090.73 192.146 1089.48 192.848C1088.26 193.55 1086.9 193.9 1085.39 193.9L1062.39 193.953V206.377H1053.82ZM1062.39 185.688H1084.95V176.686H1062.39V185.688Z" fill="#1925C0"/>
<path d="M1003.86 206.374V168.47H1040.62V176.683H1012.54V183.316H1035.15V191.528H1012.54V198.162H1040.62V206.374H1003.86Z" fill="#1925C0"/>
<path d="M952.265 206.377V168.526H983.836C985.347 168.526 986.711 168.877 987.927 169.579C989.181 170.281 990.176 171.228 990.913 172.421C991.687 173.615 992.074 174.913 992.074 176.317V186.109C992.074 187.513 991.687 188.811 990.913 190.005C990.176 191.198 989.181 192.146 987.927 192.848C986.711 193.55 985.347 193.9 983.836 193.9L960.835 193.953V206.377H952.265ZM960.835 185.688H983.393V176.686H960.835V185.688Z" fill="#1925C0"/>
<path d="M899.101 206.374V203.584L913.31 187.422L899.101 171.26V168.47H908.002L919.061 180.947L930.008 168.47H938.91V171.26L924.645 187.422L938.91 203.531V206.374H930.008L918.95 193.95L908.002 206.374H899.101Z" fill="#1925C0"/>
<path d="M849.695 206.374V168.47H886.463V176.683H858.376V183.316H880.99V191.528H858.376V198.162H886.463V206.374H849.695Z" fill="#1925C0"/>
<path d="M774.06 206.374V168.47H810.828V176.683H782.74V183.316H805.354V191.528H782.74V198.162H810.828V206.374H774.06Z" fill="#1925C0"/>
<path d="M714.915 206.374V168.47H723.762L737.253 183.79L750.688 168.47H759.59V206.374H750.965V180.947L737.253 196.53L723.485 180.999V206.374H714.915Z" fill="#1925C0"/>
<path d="M693.964 206.374V168.47H702.423V206.374H693.964Z" fill="#1925C0"/>
<path d="M659.254 206.374V176.683H643.662V168.47H683.472V176.683H667.88V206.374H659.254Z" fill="#1925C0"/>
<path d="M623.625 206.374V168.47H632.085V206.374H623.625Z" fill="#1925C0"/>
<path d="M602.549 206.377L590.993 193.269H602.217L611.395 203.587V206.377H602.549ZM571.641 206.377V168.526H603.212C604.724 168.526 606.087 168.877 607.304 169.579C608.557 170.281 609.552 171.228 610.29 172.421C611.064 173.615 611.451 174.913 611.451 176.317V186.109C611.451 187.513 611.064 188.811 610.29 190.005C609.552 191.198 608.557 192.146 607.304 192.848C606.087 193.55 604.724 193.9 603.212 193.9L580.211 193.953V206.377H571.641ZM580.211 185.688H602.77V176.686H580.211V185.688Z" fill="#1925C0"/>
<path d="M517.791 206.374V176.261C517.791 174.822 518.16 173.524 518.897 172.366C519.634 171.172 520.629 170.225 521.883 169.523C523.136 168.821 524.5 168.47 525.974 168.47H549.362C550.873 168.47 552.237 168.821 553.454 169.523C554.707 170.225 555.702 171.172 556.439 172.366C557.213 173.524 557.601 174.822 557.601 176.261V206.374H548.92V194.161H526.361V206.374H517.791ZM526.361 185.948H548.92V176.683H526.361V185.948Z" fill="#1925C0"/>
<path d="M458.646 206.374V168.47H467.493L480.984 183.79L494.42 168.47H503.322V206.374H494.696V180.947L480.984 196.53L467.217 180.999V206.374H458.646Z" fill="#1925C0"/>
<path d="M379.343 206.374V168.47H410.914C412.426 168.47 413.79 168.821 415.006 169.523C416.259 170.225 417.254 171.172 417.992 172.366C418.766 173.524 419.153 174.822 419.153 176.261V198.583C419.153 199.987 418.766 201.285 417.992 202.478C417.254 203.672 416.259 204.619 415.006 205.321C413.79 206.023 412.426 206.374 410.914 206.374H379.343ZM387.858 198.162H410.472V176.683H387.858V198.162Z" fill="#1925C0"/>
<path d="M329.27 206.374V168.47H366.039V176.683H337.951V183.316H360.565V191.528H337.951V198.162H366.039V206.374H329.27Z" fill="#1925C0"/>
<path d="M284.138 206.374C282.627 206.374 281.245 206.023 279.991 205.321C278.775 204.619 277.798 203.689 277.061 202.531C276.324 201.338 275.955 200.022 275.955 198.583V176.261C275.955 174.822 276.324 173.524 277.061 172.366C277.798 171.172 278.775 170.225 279.991 169.523C281.245 168.821 282.627 168.47 284.138 168.47H315.654V176.683H286.35C285.76 176.683 285.299 176.823 284.968 177.104C284.673 177.384 284.525 177.823 284.525 178.42V196.424C284.525 196.986 284.673 197.425 284.968 197.74C285.299 198.021 285.76 198.162 286.35 198.162H315.654V206.374H284.138Z" fill="#1925C0"/>
<path d="M222.209 206.374V168.47H231.056L253.338 193.739V168.47H262.018V206.374H253.172L230.779 180.999V206.374H222.209Z" fill="#1925C0"/>
<path d="M168.359 206.374V176.261C168.359 174.822 168.728 173.524 169.465 172.366C170.202 171.172 171.198 170.225 172.451 169.523C173.704 168.821 175.068 168.47 176.542 168.47H199.931C201.442 168.47 202.806 168.821 204.022 169.523C205.275 170.225 206.271 171.172 207.008 172.366C207.782 173.524 208.169 174.822 208.169 176.261V206.374H199.488V194.161H176.929V206.374H168.359ZM176.929 185.948H199.488V176.683H176.929V185.948Z" fill="#1925C0"/>
<path d="M127.545 206.374L104.488 168.47H114.441L131.139 196.003L147.836 168.47H157.733L134.677 206.374H127.545Z" fill="#1925C0"/>
<path d="M53.9614 206.374V168.47H85.5326C87.0438 168.47 88.4077 168.821 89.6241 169.523C90.8774 170.225 91.8726 171.172 92.6098 172.366C93.3839 173.524 93.7709 174.822 93.7709 176.261V198.583C93.7709 199.987 93.3839 201.285 92.6098 202.478C91.8726 203.672 90.8774 204.619 89.6241 205.321C88.4077 206.023 87.0438 206.374 85.5326 206.374H53.9614ZM62.4762 198.162H85.0902V176.683H62.4762V198.162Z" fill="#1925C0"/>
<path d="M-0.000976562 206.374V176.261C-0.000976562 174.822 0.36763 173.524 1.10484 172.366C1.84206 171.172 2.83729 170.225 4.09055 169.523C5.34382 168.821 6.70766 168.47 8.18209 168.47H31.5702C33.0814 168.47 34.4453 168.821 35.6617 169.523C36.915 170.225 37.9102 171.172 38.6474 172.366C39.4215 173.524 39.8085 174.822 39.8085 176.261V206.374H31.1278V194.161H8.56912V206.374H-0.000976562ZM8.56912 185.948H31.1278V176.683H8.56912V185.948Z" fill="#1925C0"/>
</svg>
